<svg width="137" height="258" viewBox="0 0 287 558" fill="none" xmlns="http://www.w3.org/2000/svg">
<path d="M186.58 407.75V406.41C187.657 400.195 188.083 393.884 187.85 387.58L187.94 382.85L188.05 382.17V381.95C188.302 381.337 188.48 380.695 188.58 380.04C189.29 366.86 190.18 353.68 190.58 340.48C191.15 322.91 191.5 305.32 191.29 287.73C191.21 281.19 191.29 280.99 184.75 281.26C178.99 281.5 173.41 280.13 167.75 279.9L167.51 279.76H167.23C166.94 278.81 166.68 277.84 166.35 276.89C164.35 271.14 162.35 265.4 158.66 260.43C157.41 258.77 156.44 258.28 154.26 259.04C150.26 260.41 146.26 261.64 141.9 261.49C138.73 261.38 135.96 259.49 132.76 259.67C130.29 257.8 128.76 258.67 127.25 261.13C124.261 265.769 121.973 270.823 120.46 276.13C119.8 278.5 118.99 280.53 115.92 280.02L109.37 281.28C105.37 281.18 101.3 281.17 97.28 280.97C95.62 280.88 95.07 281.44 95.1 283.03C95.38 298.61 94.47 314.2 95.68 329.77C96.14 335.69 96.23 341.64 96.39 347.58C96.82 363.14 97.85 378.66 98.79 394.19C99.79 410.96 100.55 427.76 101.96 444.5C102.68 453.08 103.16 461.67 103.89 470.25C104.71 479.84 104.89 489.49 105.99 499.05C107.52 512.93 107.61 526.94 109.57 540.78C109.87 542.88 109.86 545.02 109.99 547.15C109.11 547.46 110.99 549.82 108.59 549.02C109.12 542.8 107.47 536.76 106.92 530.64C106.21 522.64 105.31 514.64 104.29 506.64C102.96 496.09 102.15 485.5 101.01 474.94C99.66 462.59 99.01 450.16 97.6 437.82C96.19 425.69 95.29 413.53 94.16 401.39C92.95 388.46 92.16 375.49 90.99 362.54C89.89 349.94 88.6967 337.35 87.41 324.77C86.41 315.2 85.41 305.62 84.2 296.09C83.66 291.93 83.41 287.58 80.94 283.9C80.5842 283.327 80.3898 282.669 80.3775 281.995C80.3651 281.32 80.5353 280.655 80.87 280.07C81.5406 278.525 81.8254 276.84 81.7 275.16C82.3976 274.618 82.8854 273.851 83.08 272.99C83.8591 270.326 84.7804 267.705 85.84 265.14C86.45 263.66 87.49 262.4 89.37 263.58C95.87 267.66 103.37 267.53 110.55 268.63C113 269 114.55 267.92 115.09 265.72C115.946 262.863 117.256 260.161 118.97 257.72C119.62 256.72 120.12 255.56 119.26 254.28C115.77 249.08 114.42 248.76 108.96 252.03C107.35 253.03 105.49 253.69 104.34 255.22C101.86 258.54 99.34 257.49 96.6 255.65C87.8132 249.814 78.1471 245.425 67.97 242.65C63.86 241.48 63.05 242.11 62.83 246.43C62.83 246.99 62.83 247.55 62.83 248.12C62.54 266.41 63.95 284.65 64.56 302.91C65.04 316.91 66.07 330.86 66.83 344.84C67.45 356.14 67.97 367.45 68.64 378.75C69.32 390.27 70.18 401.75 70.89 413.31C71.61 425.16 72.17 437.03 72.89 448.88C73.75 462.52 74.54 476.16 75.73 489.77C76.25 495.66 75.65 501.68 77.49 507.44C77.49 508.56 77.56 509.67 77.6 510.79C77.53 517.32 77.43 523.85 78.78 530.3C78.6071 530.603 78.5096 530.942 78.4956 531.29C78.4817 531.638 78.5518 531.985 78.7 532.3V542.72C78.27 535.72 76.31 529.01 76.2 522.06C76.2628 520.255 75.8708 518.464 75.06 516.85L74.88 514.85C75.98 513.28 75.21 511.62 74.88 510.13C73.44 504.13 74.22 497.84 72.38 491.92C72.22 483.74 70.81 475.68 70.03 467.56C69.03 456.77 67.94 445.97 66.81 435.19C65.66 424.19 64.34 413.19 63.25 402.19C62.11 390.73 61.18 379.24 60.11 367.77C59.39 359.99 58.51 352.22 57.83 344.43C56.52 329.43 55.31 314.32 54.04 299.27C53.3733 291.03 52.67 282.79 51.93 274.55C51.24 265.46 50.57 256.36 49.85 247.27C49.451 242.707 48.7427 238.177 47.73 233.71C46.95 230.13 48.79 226.77 49.52 223.31C52.09 219.64 53.52 215.23 56.93 211.79C60.72 224.27 71.14 229.79 81.35 235.3C86.9672 238.438 92.9088 240.956 99.07 242.81C102.54 243.81 110.47 240.66 112.75 237.94C114.26 236.14 112.91 234.53 111.53 233.34C106.98 229.41 101.75 226.47 96.63 223.39C92.24 220.75 87.63 218.64 82.97 216.45C77.97 214.06 76.45 211.31 77.73 206.05C78.41 203.28 76.66 202.7 75.01 201.99C65.41 197.88 55.79 193.84 46.17 189.79C38.1 186.39 30.01 183.02 21.96 179.57C21.3198 179.261 20.6212 179.093 19.9108 179.076C19.2004 179.059 18.4944 179.193 17.84 179.47C12.84 181.39 7.77999 183.02 2.76999 184.85C0.689986 185.62 -0.139994 185.21 0.0400059 182.85C0.300006 179.3 1.37003 175.85 0.94003 172.21C2.69003 166.98 2.63003 161.45 3.56003 156.08C4.84003 148.62 5.98001 141.137 6.98001 133.63C7.90001 126.63 9.85003 119.89 10.31 112.87C11.73 109.56 11.78 105.95 12.59 102.5C13.78 97.5 14.59 92.36 15.59 87.29C15.67 86.76 15.75 86.22 15.82 85.69C18.21 78.75 19.23 71.49 21.01 64.4L21.14 63.13C22.0339 61.9531 22.4773 60.4953 22.39 59.02V58.93C23.72 57.39 23.77 55.53 23.68 53.64L25.17 48.28C25.45 48.1 25.89 47.97 25.96 47.72C27.92 41.1667 29.86 34.6133 31.78 28.06C33.4406 24.5556 34.7989 20.9157 35.84 17.18L43.73 0C42.17 8.86 40.54 17.71 39.07 26.58C37.5 36.04 35.93 45.5 34.65 55C34.17 58.62 32.74 62.15 33.29 65.9C31.2322 77.2087 29.8763 88.6338 29.23 100.11C28.79 103.43 28.43 106.78 27.88 110.11C27.42 112.91 28.63 114.51 31.09 115.55C38.45 118.64 45.76 121.84 53.09 124.88C60.42 127.92 67.75 130.75 75.09 133.73C79.2 135.41 79.59 135.26 81.83 131.4C87.58 121.46 96.22 114.5 105.37 107.86C115.69 100.38 127.01 95.01 138.53 89.86C142.32 88.15 145.09 88.43 148.72 90.02C155.83 93.14 162.84 96.53 169.62 100.21C177 104.21 183.62 109.51 190.3 114.74C196.615 119.642 201.788 125.859 205.46 132.96C206.79 135.54 208.81 134.96 210.64 134.25C223.91 128.86 237.13 123.36 250.36 117.89C251.08 117.6 251.8 117.31 252.54 117.05C258.3 115.05 258.64 114.12 258.33 108.05C257.8 97.97 256.43 87.98 255.16 78.05C253.43 64.32 251.47 50.61 249.02 36.96C247.1 26.36 245.52 15.7 243.39 5.13C243.286 3.82872 243.286 2.52128 243.39 1.22C246.381 7.01258 248.997 12.9916 251.22 19.12C255.933 31.9867 260.083 45.0367 263.67 58.27C266.67 69.56 269.1 80.96 271.77 92.32C275.48 108.09 278.06 124.07 280.69 140.03C282.95 153.8 284.58 167.68 286.32 181.53C286.81 185.41 286.5 185.53 282.96 184.53C278.71 183.25 274.34 182.12 270.36 180.22C267.36 178.81 265.09 179.42 262.48 180.54C245.527 187.76 228.573 194.96 211.62 202.14C209.32 203.14 207.55 203.89 209.2 207.14C210.85 210.39 208.3 214.55 203.48 216.69C194.292 220.669 185.572 225.652 177.48 231.55C171.4 236.06 171.48 237.1 177.68 240.83C182.83 243.92 188 243.34 193.36 241C204.36 236.18 215.29 231.24 223.82 222.37C226.054 220.196 227.702 217.492 228.61 214.51C228.81 213.79 229.01 212.91 229.96 212.74C231.08 212.55 231.09 213.64 231.5 214.22C234.907 218.934 237.44 224.221 238.98 229.83C240.04 233.54 238.11 236.83 237.57 240.29C236.41 247.72 236.04 255.21 235.38 262.67C233.93 278.96 233.02 295.29 231.38 311.57C230.01 325.27 229.16 339.02 227.96 352.74C226.75 366.68 225.49 380.62 224.1 394.54C222.55 409.9 220.79 425.25 219.2 440.61C218.14 450.96 217.32 461.34 216.2 471.69C215.08 482.04 213.61 492.13 212.68 502.38C211.75 512.63 209.84 522.77 209.58 533.08L208.49 535.83C207.87 529.92 208.64 524.12 208.36 518.33C208.965 516.18 209.095 513.925 208.74 511.72C210.09 511.04 209.5 509.72 209.56 508.72C209.72 506.38 209.62 504.03 209.82 501.72C211 488.42 212.25 475.12 212.37 461.72L212.47 460.43C212.937 459.532 213.132 458.517 213.03 457.51C213.55 449.583 214.063 441.65 214.57 433.71C215.44 420.53 216.47 407.35 217.15 394.16C217.64 384.66 218.31 375.16 218.64 365.67C219.07 353.25 220.78 340.89 220.32 328.44L220.41 327.11C220.946 325.757 221.185 324.304 221.11 322.85C221.33 315.58 221.37 308.29 221.9 301.05C223.11 284.63 223.12 268.18 223.7 251.75C223.78 249.53 223.31 247.3 223.3 245.07C223.3 241.94 221.58 241.97 219.3 242.66C216.54 243.5 213.69 244.12 211 245.16C205.54 247.3 199.81 248.91 195.24 252.88H195.36C192.58 253.5 190.47 255.39 188.08 256.75C186.15 257.85 184.59 258.2 182.88 256.06C180.61 253.23 177.14 251.92 174.01 250.26C173.705 250.052 173.359 249.912 172.995 249.85C172.631 249.788 172.258 249.804 171.901 249.899C171.544 249.994 171.212 250.165 170.927 250.4C170.642 250.634 170.411 250.928 170.25 251.26C169.596 252.153 168.81 252.942 167.92 253.6C166.54 254.8 166.12 255.87 167.44 257.6C169.335 259.97 170.699 262.718 171.44 265.66C172.09 268.33 173.62 268.66 175.82 268.53C179.06 268.29 182.33 268.23 185.54 267.8C189.44 267.28 193.41 266.49 196.37 263.74C198.52 261.74 199.32 263.01 200.18 264.65C202.78 269.65 204.18 275 205.55 280.39C205.788 281.142 205.875 281.934 205.806 282.72C205.737 283.506 205.514 284.27 205.15 284.97C203.91 287.312 203.123 289.866 202.83 292.5C202.19 297.04 201.57 301.59 201.04 306.15C200.09 314.26 198.76 322.33 198.83 330.53C198.83 331.18 198.74 331.84 198.69 332.53C197.187 342.359 196.292 352.271 196.01 362.21V363.5C195.185 366.108 194.754 368.825 194.73 371.56C194.47 378.38 193.54 385.15 193.08 391.96C192.17 405.44 190.62 418.88 189.36 432.33C188.72 439.24 188.18 446.16 187.54 453.07C186.71 462.19 185.31 471.26 185.16 480.45C184.875 481.183 184.875 481.997 185.16 482.73C184.432 483.862 184.053 485.184 184.07 486.53C183.85 489.65 183.63 492.76 183.33 495.88C182.59 503.52 181.17 511.11 181.19 518.88C180.952 519.318 180.82 519.805 180.802 520.303C180.785 520.801 180.883 521.297 181.09 521.75C180.814 521.945 180.587 522.202 180.429 522.501C180.271 522.8 180.186 523.132 180.18 523.47C180.18 528.42 179.03 533.23 178.55 538.11C177.92 544.5 177.15 550.86 176.44 557.24C175.56 549.35 177.18 541.61 177.55 533.81C177.88 527.06 178.68 520.31 178.81 513.53C178.81 513.08 178.81 512.63 178.81 512.18C180.54 507.6 179.71 502.8 179.96 498.1C180.714 494.603 181.149 491.045 181.26 487.47C181.68 479.55 182.213 471.64 182.86 463.74C183.86 450.93 185.3 438.15 185.35 425.28L185.46 425.05C186.468 419.342 186.844 413.54 186.58 407.75ZM129.36 229.19C129.67 222.25 132.58 216.57 134.23 210.52C134.8 208.42 133.98 207.31 132.06 206.37C124.918 202.735 118.632 197.622 113.62 191.37C110.7 187.86 108.98 184.04 110.95 179.1C112.85 174.33 115.28 169.83 117.23 165.1C119.401 160.249 121.183 155.233 122.56 150.1C119.56 151.76 118.23 154.23 116.56 156.34C106.92 168.46 98.03 180.96 92.9 195.76C91.12 200.87 90.57 206.16 92.06 210.24C92.435 206.277 93.4975 202.409 95.2 198.81C95.608 200.334 95.8263 201.902 95.85 203.48C95.95 208.89 96.25 209.04 101.23 211.34C108.64 214.77 116.72 216.16 124.29 219.11C126.79 220.11 127.62 221.28 127.46 223.74C127.36 225.46 127.27 227.29 129.36 229.19ZM164.36 150.12C164.14 150.447 164.015 150.829 164.001 151.224C163.987 151.618 164.084 152.008 164.28 152.35C167.002 160.073 170.211 167.615 173.89 174.93C177.44 182.01 177.25 187.53 171.57 193.14C166.35 198.29 160.96 203.23 154.31 206.54C152.8 207.29 151.18 208.02 151.98 210.3C154.1 216.43 156.82 222.37 157.77 228.98C158.439 227.6 158.781 226.084 158.77 224.55C158.55 221.44 160.03 220.11 162.77 218.93C169.1 216.2 175.99 215.26 182.3 212.53C189.56 209.39 190.91 210.74 190.69 201.53C190.724 200.366 190.817 199.204 190.97 198.05C192.97 200.99 192.91 204.22 194.39 207.33C195.39 204.75 195.39 204.58 195.39 203.62C194.93 197.62 192.26 192.32 189.92 186.99C185.19 176.24 178.15 166.87 171.07 157.6C169.12 154.98 167.17 152.18 164.39 150.12H164.36ZM105.64 146.05L105.22 145.72C104.221 146.661 103.308 147.688 102.49 148.79C98.61 154.99 94.73 161.19 91.03 167.5C88.33 172.1 85.9 176.85 83.33 181.5C82.86 182.35 82.56 183.5 81.33 183.44C80.1 183.38 80.44 182.08 80.09 181.36C78.26 177.56 76.09 174.36 71.62 173.05C67.0599 171.676 62.6321 169.895 58.39 167.73C48.9 162.89 38.83 159.41 29.21 154.86C28.11 154.34 26.49 153.64 26 155.77C25 159.94 26.37 163.97 26.93 168.04C27 168.54 27.8 169.04 28.38 169.33C33.66 171.84 38.91 174.43 44.29 176.72C50.08 179.19 56 181.33 61.86 183.64C67.72 185.95 73.33 188.5 79.28 190.4C82.53 191.4 84.36 190.4 85.34 187.33C87.85 179.33 91.79 172.03 95.47 164.59C98.59 158.3 102.25 152.23 105.67 146.05H105.64ZM184.33 150.15L183.33 150.72C183.484 151.097 183.661 151.464 183.86 151.82C190.288 162.734 195.923 174.097 200.72 185.82C203.12 191.57 203.2 191.54 209.39 189.82C210.042 189.658 210.684 189.454 211.31 189.21C225.31 183.47 239.31 177.91 253.16 171.87C260.16 168.87 260.34 169.22 260.6 161.27C260.86 153.32 260.6 153.02 253.37 156.39C240.2 162.54 226.67 167.84 213.37 173.66C211.538 174.321 209.94 175.503 208.77 177.06C207.19 179.27 207.2 182.43 204.49 184.06C197.98 172.58 192.48 160.54 184.36 150.15H184.33ZM26.5 132.72C26.5023 133.838 26.422 134.954 26.26 136.06C25.46 139.34 26.79 141.32 29.8 142.56C34.71 144.56 39.55 146.79 44.45 148.83C52.13 152.03 59.8 155.24 67.54 158.28C71.59 159.87 71.62 159.7 72.33 155.23C72.63 153.36 73.33 151.61 73.82 149.76C74.4 147.32 73.44 146.18 71.52 145.36C58.7 139.893 45.8634 134.443 33.01 129.01C31.01 128.16 28.54 126.01 27.01 127.01C25.48 128.01 26.73 131.18 26.5 132.72ZM259.99 130.94C259.99 126.42 259.69 126.27 255.48 128.1C250.48 130.27 245.48 132.35 240.48 134.49C231.69 138.26 222.92 142.08 214.11 145.81C212.25 146.6 211.75 147.81 212.54 149.51C213.71 152.01 213.75 154.73 214.2 157.35C214.5 159.16 214.76 159.98 216.92 159.09C228.65 154.27 240.49 149.72 252.2 144.84C260.59 141.34 260.52 141.17 259.99 131.95C259.97 131.61 259.99 131.28 259.99 130.94ZM144.91 235.94C144.785 238.851 145.198 241.76 146.13 244.52C146.562 246.233 147.584 247.739 149.016 248.774C150.448 249.809 152.198 250.307 153.96 250.18C155.66 250.1 156.07 249.44 155.2 248.18C152.33 244.07 151.04 239.18 148.43 234.95C147.5 233.46 147.31 230.31 145.64 230.74C143.97 231.17 145.22 234.15 144.91 235.95V235.94ZM141.56 237.14C141.56 235.57 141.56 234.79 141.56 234.01C141.5 233.01 141.83 231.7 140.68 231.39C139.28 231.01 139.44 232.66 138.92 233.39C136.75 236.39 135.99 240.17 133.31 243.03C132.12 244.3 132.31 246.92 131.38 248.83C130.76 250.08 131.95 250.15 132.9 250.21C135.73 250.4 139.95 247.44 140.49 244.6C141.03 241.76 141.73 239.18 141.56 237.15V237.14Z" fill="#F60303"/>
<path d="M130.87 262.46C137.48 262.02 140.06 264.25 140.94 270.93C141.344 272.773 141.559 274.653 141.58 276.54C141.44 278.41 141.58 280.3 141.58 282.82C138.68 279.74 137.87 275.93 135.58 273.13C134.57 269.34 131.73 266.35 130.87 262.46Z" fill="#F60303"/>
<path d="M155.8 262.71L145.8 282.77C144.52 277.342 144.73 271.668 146.41 266.35C147.19 263.77 151.79 262.16 155.8 262.71Z" fill="#F60303"/>
</svg>
